<mxfile host="app.diagrams.net" modified="2022-01-24T06:32:35.727Z" agent="5.0 (Windows NT 10.0; Win64; x64) AppleWebKit/537.36 (KHTML, like Gecko) Chrome/72.0.3626.109 Safari/537.36" etag="8_SpmOTETtRi3ukLtK5I" version="16.4.5" type="github">
  <diagram id="v9VeEew0eSVK_gECYCmD" name="Page-1">
    <mxGraphModel dx="1488" dy="592" grid="1" gridSize="10" guides="1" tooltips="1" connect="1" arrows="1" fold="1" page="1" pageScale="1" pageWidth="827" pageHeight="1169" math="0" shadow="0">
      <root>
        <mxCell id="0" />
        <mxCell id="1" parent="0" />
        <mxCell id="Nxp5lRbY74mLAklm460_-77" value="" style="edgeStyle=orthogonalEdgeStyle;rounded=0;orthogonalLoop=1;jettySize=auto;html=1;fontSize=15;" edge="1" parent="1" source="Nxp5lRbY74mLAklm460_-64" target="Nxp5lRbY74mLAklm460_-65">
          <mxGeometry relative="1" as="geometry" />
        </mxCell>
        <mxCell id="Nxp5lRbY74mLAklm460_-64" value="设定影厅" style="rounded=1;whiteSpace=wrap;html=1;fontSize=15;fillColor=#d5e8d4;strokeColor=#82b366;" vertex="1" parent="1">
          <mxGeometry x="270" y="120" width="120" height="60" as="geometry" />
        </mxCell>
        <mxCell id="Nxp5lRbY74mLAklm460_-78" value="" style="edgeStyle=orthogonalEdgeStyle;rounded=0;orthogonalLoop=1;jettySize=auto;html=1;fontSize=15;" edge="1" parent="1" source="Nxp5lRbY74mLAklm460_-65" target="Nxp5lRbY74mLAklm460_-67">
          <mxGeometry relative="1" as="geometry" />
        </mxCell>
        <mxCell id="Nxp5lRbY74mLAklm460_-65" value="设定场次" style="rounded=1;whiteSpace=wrap;html=1;fontSize=15;fillColor=#d5e8d4;strokeColor=#82b366;" vertex="1" parent="1">
          <mxGeometry x="420" y="120" width="120" height="60" as="geometry" />
        </mxCell>
        <mxCell id="Nxp5lRbY74mLAklm460_-76" value="" style="edgeStyle=orthogonalEdgeStyle;rounded=0;orthogonalLoop=1;jettySize=auto;html=1;fontSize=15;" edge="1" parent="1" source="Nxp5lRbY74mLAklm460_-66" target="Nxp5lRbY74mLAklm460_-64">
          <mxGeometry relative="1" as="geometry" />
        </mxCell>
        <mxCell id="Nxp5lRbY74mLAklm460_-66" value="设定电影" style="rounded=1;whiteSpace=wrap;html=1;fontSize=15;fillColor=#d5e8d4;strokeColor=#82b366;" vertex="1" parent="1">
          <mxGeometry x="120" y="120" width="120" height="60" as="geometry" />
        </mxCell>
        <mxCell id="Nxp5lRbY74mLAklm460_-79" value="" style="edgeStyle=orthogonalEdgeStyle;rounded=0;orthogonalLoop=1;jettySize=auto;html=1;fontSize=15;" edge="1" parent="1" source="Nxp5lRbY74mLAklm460_-67" target="Nxp5lRbY74mLAklm460_-68">
          <mxGeometry relative="1" as="geometry" />
        </mxCell>
        <mxCell id="Nxp5lRbY74mLAklm460_-67" value="设定票价" style="rounded=1;whiteSpace=wrap;html=1;fontSize=15;fillColor=#d5e8d4;strokeColor=#82b366;" vertex="1" parent="1">
          <mxGeometry x="580" y="120" width="120" height="60" as="geometry" />
        </mxCell>
        <mxCell id="Nxp5lRbY74mLAklm460_-80" value="" style="edgeStyle=orthogonalEdgeStyle;rounded=0;orthogonalLoop=1;jettySize=auto;html=1;fontSize=15;" edge="1" parent="1" source="Nxp5lRbY74mLAklm460_-68" target="Nxp5lRbY74mLAklm460_-69">
          <mxGeometry relative="1" as="geometry" />
        </mxCell>
        <mxCell id="Nxp5lRbY74mLAklm460_-68" value="生成排片计划" style="rounded=1;whiteSpace=wrap;html=1;fontSize=15;fillColor=#d5e8d4;strokeColor=#82b366;" vertex="1" parent="1">
          <mxGeometry x="730" y="120" width="120" height="60" as="geometry" />
        </mxCell>
        <mxCell id="Nxp5lRbY74mLAklm460_-81" value="" style="edgeStyle=orthogonalEdgeStyle;rounded=0;orthogonalLoop=1;jettySize=auto;html=1;fontSize=15;" edge="1" parent="1" source="Nxp5lRbY74mLAklm460_-69" target="Nxp5lRbY74mLAklm460_-74">
          <mxGeometry relative="1" as="geometry" />
        </mxCell>
        <mxCell id="Nxp5lRbY74mLAklm460_-69" value="上架" style="rounded=1;whiteSpace=wrap;html=1;fontSize=15;fillColor=#d5e8d4;strokeColor=#82b366;" vertex="1" parent="1">
          <mxGeometry x="880" y="120" width="120" height="60" as="geometry" />
        </mxCell>
        <mxCell id="Nxp5lRbY74mLAklm460_-75" value="" style="edgeStyle=orthogonalEdgeStyle;rounded=0;orthogonalLoop=1;jettySize=auto;html=1;fontSize=15;" edge="1" parent="1" source="Nxp5lRbY74mLAklm460_-70" target="Nxp5lRbY74mLAklm460_-66">
          <mxGeometry relative="1" as="geometry" />
        </mxCell>
        <mxCell id="Nxp5lRbY74mLAklm460_-70" value="院线管理员" style="shape=umlActor;verticalLabelPosition=bottom;verticalAlign=top;html=1;outlineConnect=0;fontSize=15;" vertex="1" parent="1">
          <mxGeometry x="30" y="110" width="40" height="80" as="geometry" />
        </mxCell>
        <mxCell id="Nxp5lRbY74mLAklm460_-74" value="可购票" style="html=1;shadow=0;dashed=0;shape=mxgraph.bootstrap.rrect;rSize=5;strokeColor=none;strokeWidth=1;fillColor=#33A64C;fontColor=#FFFFFF;whiteSpace=wrap;align=center;verticalAlign=middle;spacingLeft=0;fontStyle=0;fontSize=16;spacing=5;" vertex="1" parent="1">
          <mxGeometry x="1030" y="120" width="120" height="60" as="geometry" />
        </mxCell>
        <mxCell id="Nxp5lRbY74mLAklm460_-82" value="" style="edgeStyle=orthogonalEdgeStyle;rounded=0;orthogonalLoop=1;jettySize=auto;html=1;fontSize=15;" edge="1" parent="1" source="Nxp5lRbY74mLAklm460_-83" target="Nxp5lRbY74mLAklm460_-85">
          <mxGeometry relative="1" as="geometry" />
        </mxCell>
        <mxCell id="Nxp5lRbY74mLAklm460_-83" value="选中电影" style="rounded=1;whiteSpace=wrap;html=1;fontSize=15;fillColor=#d5e8d4;strokeColor=#82b366;" vertex="1" parent="1">
          <mxGeometry x="270" y="290" width="120" height="60" as="geometry" />
        </mxCell>
        <mxCell id="Nxp5lRbY74mLAklm460_-84" value="" style="edgeStyle=orthogonalEdgeStyle;rounded=0;orthogonalLoop=1;jettySize=auto;html=1;fontSize=15;" edge="1" parent="1" source="Nxp5lRbY74mLAklm460_-85" target="Nxp5lRbY74mLAklm460_-89">
          <mxGeometry relative="1" as="geometry" />
        </mxCell>
        <mxCell id="Nxp5lRbY74mLAklm460_-85" value="选择影厅 &amp;amp; 场次" style="rounded=1;whiteSpace=wrap;html=1;fontSize=15;fillColor=#d5e8d4;strokeColor=#82b366;" vertex="1" parent="1">
          <mxGeometry x="420" y="290" width="120" height="60" as="geometry" />
        </mxCell>
        <mxCell id="Nxp5lRbY74mLAklm460_-86" value="" style="edgeStyle=orthogonalEdgeStyle;rounded=0;orthogonalLoop=1;jettySize=auto;html=1;fontSize=15;" edge="1" parent="1" source="Nxp5lRbY74mLAklm460_-87" target="Nxp5lRbY74mLAklm460_-83">
          <mxGeometry relative="1" as="geometry" />
        </mxCell>
        <mxCell id="Nxp5lRbY74mLAklm460_-87" value="查看电影" style="rounded=1;whiteSpace=wrap;html=1;fontSize=15;fillColor=#d5e8d4;strokeColor=#82b366;" vertex="1" parent="1">
          <mxGeometry x="120" y="290" width="120" height="60" as="geometry" />
        </mxCell>
        <mxCell id="Nxp5lRbY74mLAklm460_-88" value="" style="edgeStyle=orthogonalEdgeStyle;rounded=0;orthogonalLoop=1;jettySize=auto;html=1;fontSize=15;" edge="1" parent="1" source="Nxp5lRbY74mLAklm460_-89" target="Nxp5lRbY74mLAklm460_-91">
          <mxGeometry relative="1" as="geometry" />
        </mxCell>
        <mxCell id="Nxp5lRbY74mLAklm460_-89" value="选择座位" style="rounded=1;whiteSpace=wrap;html=1;fontSize=15;fillColor=#d5e8d4;strokeColor=#82b366;" vertex="1" parent="1">
          <mxGeometry x="580" y="290" width="120" height="60" as="geometry" />
        </mxCell>
        <mxCell id="Nxp5lRbY74mLAklm460_-90" value="" style="edgeStyle=orthogonalEdgeStyle;rounded=0;orthogonalLoop=1;jettySize=auto;html=1;fontSize=15;" edge="1" parent="1" source="Nxp5lRbY74mLAklm460_-91" target="Nxp5lRbY74mLAklm460_-93">
          <mxGeometry relative="1" as="geometry" />
        </mxCell>
        <mxCell id="Nxp5lRbY74mLAklm460_-91" value="生成订单" style="rounded=1;whiteSpace=wrap;html=1;fontSize=15;fillColor=#d5e8d4;strokeColor=#82b366;" vertex="1" parent="1">
          <mxGeometry x="730" y="290" width="120" height="60" as="geometry" />
        </mxCell>
        <mxCell id="Nxp5lRbY74mLAklm460_-99" value="" style="edgeStyle=orthogonalEdgeStyle;rounded=0;orthogonalLoop=1;jettySize=auto;html=1;fontSize=15;fontColor=#4D4D4D;" edge="1" parent="1" source="Nxp5lRbY74mLAklm460_-93" target="Nxp5lRbY74mLAklm460_-97">
          <mxGeometry relative="1" as="geometry" />
        </mxCell>
        <mxCell id="Nxp5lRbY74mLAklm460_-93" value="支付宝支付" style="rounded=1;whiteSpace=wrap;html=1;fontSize=15;fillColor=#d5e8d4;strokeColor=#82b366;" vertex="1" parent="1">
          <mxGeometry x="880" y="290" width="120" height="60" as="geometry" />
        </mxCell>
        <mxCell id="Nxp5lRbY74mLAklm460_-94" value="" style="edgeStyle=orthogonalEdgeStyle;rounded=0;orthogonalLoop=1;jettySize=auto;html=1;fontSize=15;" edge="1" parent="1" source="Nxp5lRbY74mLAklm460_-95" target="Nxp5lRbY74mLAklm460_-87">
          <mxGeometry relative="1" as="geometry" />
        </mxCell>
        <mxCell id="Nxp5lRbY74mLAklm460_-95" value="顾客" style="shape=umlActor;verticalLabelPosition=bottom;verticalAlign=top;html=1;outlineConnect=0;fontSize=15;" vertex="1" parent="1">
          <mxGeometry x="30" y="280" width="40" height="80" as="geometry" />
        </mxCell>
        <mxCell id="Nxp5lRbY74mLAklm460_-96" value="结束" style="html=1;shadow=0;dashed=0;shape=mxgraph.bootstrap.rrect;rSize=5;strokeColor=none;strokeWidth=1;fillColor=#99FF33;fontColor=#4D4D4D;whiteSpace=wrap;align=center;verticalAlign=middle;spacingLeft=0;fontStyle=0;fontSize=16;spacing=5;" vertex="1" parent="1">
          <mxGeometry x="880" y="400" width="120" height="60" as="geometry" />
        </mxCell>
        <mxCell id="Nxp5lRbY74mLAklm460_-100" value="" style="edgeStyle=orthogonalEdgeStyle;rounded=0;orthogonalLoop=1;jettySize=auto;html=1;fontSize=15;fontColor=#4D4D4D;" edge="1" parent="1" source="Nxp5lRbY74mLAklm460_-97" target="Nxp5lRbY74mLAklm460_-98">
          <mxGeometry relative="1" as="geometry" />
        </mxCell>
        <mxCell id="Nxp5lRbY74mLAklm460_-97" value="完成订单" style="rounded=1;whiteSpace=wrap;html=1;fontSize=15;fillColor=#d5e8d4;strokeColor=#82b366;" vertex="1" parent="1">
          <mxGeometry x="1040" y="290" width="120" height="60" as="geometry" />
        </mxCell>
        <mxCell id="Nxp5lRbY74mLAklm460_-101" value="" style="edgeStyle=orthogonalEdgeStyle;rounded=0;orthogonalLoop=1;jettySize=auto;html=1;fontSize=15;fontColor=#4D4D4D;" edge="1" parent="1" source="Nxp5lRbY74mLAklm460_-98" target="Nxp5lRbY74mLAklm460_-96">
          <mxGeometry relative="1" as="geometry" />
        </mxCell>
        <mxCell id="Nxp5lRbY74mLAklm460_-98" value="评价订单" style="rounded=1;whiteSpace=wrap;html=1;fontSize=15;fillColor=#d5e8d4;strokeColor=#82b366;" vertex="1" parent="1">
          <mxGeometry x="1040" y="400" width="120" height="60" as="geometry" />
        </mxCell>
      </root>
    </mxGraphModel>
  </diagram>
</mxfile>
